<svg aria-hidden="true" style="position: absolute; width: 0; height: 0; overflow: hidden;" version="1.1" xmlns="http://www.w3.org/2000/svg" xmlns:xlink="http://www.w3.org/1999/xlink">
<defs>
<symbol id="icon-untitled" viewBox="0 0 32 32">
<path d="M19.141 16.123l10.676-10.668c0.36-0.42 0.548-0.96 0.527-1.513s-0.251-1.077-0.642-1.467c-0.391-0.391-0.915-0.62-1.469-0.641s-1.093 0.167-1.514 0.526l-10.676 10.558-10.742-10.734c-0.42-0.36-0.961-0.548-1.514-0.526s-1.077 0.25-1.469 0.641c-0.391 0.391-0.62 0.915-0.642 1.467s0.167 1.093 0.527 1.513l10.72 10.844-10.501 10.361c-0.23 0.197-0.417 0.439-0.549 0.711s-0.206 0.569-0.218 0.871 0.039 0.604 0.15 0.885c0.11 0.282 0.278 0.538 0.492 0.751s0.47 0.381 0.752 0.492c0.282 0.11 0.584 0.161 0.886 0.15s0.599-0.086 0.872-0.217c0.273-0.132 0.515-0.318 0.712-0.548l10.479-10.471 10.413 10.405c0.42 0.359 0.961 0.547 1.514 0.526s1.077-0.25 1.469-0.641c0.391-0.391 0.621-0.915 0.642-1.467s-0.167-1.093-0.527-1.512l-10.369-10.295z"></path>
</symbol>
<symbol id="icon-touch" viewBox="0 0 32 32">
<path fill="#7eb101" style="fill: var(--color1, #7eb101)" d="M15.5 1.333c2.022 0 3.75 0.706 5.183 2.117s2.15 3.128 2.15 5.15c0 1.156-0.25 2.244-0.75 3.267s-1.206 1.889-2.117 2.6h-1.133v-1.667c0.645-0.511 1.139-1.133 1.483-1.867s0.517-1.511 0.517-2.333c0-1.467-0.522-2.711-1.567-3.733s-2.3-1.533-3.767-1.533-2.722 0.511-3.767 1.533c-1.044 1.022-1.567 2.267-1.567 3.733 0 0.822 0.172 1.6 0.517 2.333s0.839 1.356 1.483 1.867v2.4c-1.245-0.645-2.222-1.556-2.933-2.733s-1.067-2.467-1.067-3.867c0-2.022 0.717-3.739 2.15-5.15s3.161-2.117 5.183-2.117zM14.233 29.333c-0.378 0-0.733-0.072-1.067-0.217s-0.622-0.339-0.867-0.583l-6.867-6.867 1.867-1.933c0.311-0.311 0.661-0.55 1.050-0.717s0.794-0.194 1.217-0.083l2.6 0.6v-10.867c0-0.933 0.322-1.722 0.967-2.367s1.433-0.967 2.367-0.967 1.722 0.322 2.367 0.967c0.644 0.644 0.967 1.433 0.967 2.367v5.733h0.867c0.111 0 0.211 0.022 0.3 0.067s0.189 0.089 0.3 0.133l4.933 2.4c0.533 0.244 0.928 0.639 1.183 1.183s0.328 1.106 0.217 1.683l-1.2 7.267c-0.111 0.645-0.422 1.172-0.933 1.583s-1.089 0.617-1.733 0.617h-8.533zM13.967 27.333h9.367l1.433-8.3-6.1-3.033h-1.833v-7.333c0-0.4-0.122-0.722-0.367-0.967s-0.567-0.367-0.967-0.367-0.722 0.122-0.967 0.367c-0.244 0.244-0.367 0.567-0.367 0.967v13.3l-5.133-1.1-0.767 0.767 5.7 5.7zM23.333 27.333v0z"></path>
</symbol>
<symbol id="icon-rocket" viewBox="0 0 32 32">
<path fill="#7eb101" style="fill: var(--color1, #7eb101)" d="M7.233 13.633l3.533 1.5c0.4-0.8 0.828-1.589 1.283-2.367s0.939-1.522 1.45-2.233l-2.633-0.533-3.633 3.633zM12.367 16.333l4.433 4.433c1.267-0.578 2.456-1.233 3.567-1.967s2.011-1.444 2.7-2.133c1.8-1.8 3.122-3.644 3.967-5.533s1.3-4.022 1.367-6.4c-2.378 0.067-4.511 0.522-6.4 1.367s-3.733 2.167-5.533 3.967c-0.689 0.689-1.4 1.589-2.133 2.7s-1.389 2.3-1.967 3.567zM20 13.133c-0.444-0.444-0.667-0.995-0.667-1.65s0.222-1.206 0.667-1.65 0.994-0.667 1.65-0.667c0.656 0 1.206 0.222 1.65 0.667s0.667 0.994 0.667 1.65c0 0.655-0.222 1.206-0.667 1.65s-0.994 0.667-1.65 0.667-1.206-0.222-1.65-0.667zM19.5 25.9l3.633-3.633-0.533-2.633c-0.711 0.511-1.456 0.994-2.233 1.45s-1.567 0.883-2.367 1.283l1.5 3.533zM30.367 2.767c0.2 3.022-0.178 5.778-1.133 8.267s-2.533 4.833-4.733 7.033l-0.133 0.133 0.733 3.667c0.067 0.333 0.050 0.656-0.050 0.967s-0.272 0.589-0.517 0.833l-5.7 5.733-2.833-6.6-5.667-5.667-6.6-2.833 5.733-5.7c0.244-0.244 0.522-0.417 0.833-0.517s0.633-0.117 0.967-0.050l3.667 0.733c0.022-0.022 0.044-0.039 0.067-0.050s0.044-0.028 0.067-0.050c2.2-2.2 4.544-3.783 7.033-4.75s5.244-1.35 8.267-1.15zM5.967 21.167c0.778-0.778 1.728-1.172 2.85-1.183s2.072 0.372 2.85 1.15c0.778 0.778 1.161 1.728 1.15 2.85s-0.406 2.072-1.183 2.85c-0.578 0.578-1.472 1.055-2.683 1.433s-3.028 0.733-5.45 1.067c0.333-2.422 0.683-4.244 1.050-5.467s0.839-2.122 1.417-2.7zM7.367 22.6c-0.311 0.333-0.589 0.856-0.833 1.567s-0.456 1.622-0.633 2.733c1.111-0.178 2.022-0.389 2.733-0.633s1.233-0.522 1.567-0.833c0.422-0.378 0.639-0.85 0.65-1.417s-0.183-1.061-0.583-1.483c-0.422-0.4-0.917-0.595-1.483-0.583s-1.039 0.228-1.417 0.65z"></path>
</symbol>
<symbol id="icon-Stars" viewBox="0 0 180 32">
<path fill="#ffe550" style="fill: var(--color1, #ffe550)" d="M13.707 2.191c0.519-1.254 2.289-1.254 2.808 0l3.066 7.403c0.219 0.529 0.714 0.89 1.283 0.936l7.957 0.641c1.348 0.109 1.895 1.798 0.868 2.682l-6.063 5.216c-0.433 0.373-0.622 0.957-0.49 1.514l1.852 7.799c0.314 1.321-1.117 2.366-2.272 1.658l-6.813-4.179c-0.487-0.299-1.099-0.299-1.585 0l-6.813 4.179c-1.154 0.708-2.586-0.336-2.272-1.658l1.852-7.799c0.132-0.557-0.057-1.142-0.49-1.514l-6.063-5.216c-1.027-0.884-0.481-2.574 0.868-2.682l7.958-0.641c0.568-0.046 1.064-0.407 1.283-0.936l3.066-7.403z"></path>
<path fill="#ffe550" style="fill: var(--color1, #ffe550)" d="M51.041 2.191c0.519-1.254 2.289-1.254 2.808 0l3.066 7.403c0.219 0.529 0.714 0.89 1.283 0.936l7.957 0.641c1.348 0.109 1.895 1.798 0.868 2.682l-6.063 5.216c-0.433 0.373-0.622 0.957-0.49 1.514l1.852 7.799c0.314 1.321-1.117 2.366-2.272 1.658l-6.813-4.179c-0.487-0.299-1.099-0.299-1.585 0l-6.813 4.179c-1.154 0.708-2.586-0.336-2.272-1.658l1.852-7.799c0.132-0.557-0.057-1.142-0.49-1.514l-6.063-5.216c-1.027-0.884-0.481-2.574 0.868-2.682l7.958-0.641c0.568-0.046 1.063-0.407 1.282-0.936l3.066-7.403z"></path>
<path fill="#ffe550" style="fill: var(--color1, #ffe550)" d="M88.374 2.191c0.519-1.254 2.289-1.254 2.808 0l3.066 7.403c0.219 0.529 0.714 0.89 1.283 0.936l7.957 0.641c1.348 0.109 1.895 1.798 0.868 2.682l-6.063 5.216c-0.433 0.373-0.622 0.957-0.49 1.514l1.852 7.799c0.314 1.321-1.117 2.366-2.272 1.658l-6.813-4.179c-0.487-0.299-1.099-0.299-1.585 0l-6.813 4.179c-1.154 0.708-2.586-0.336-2.272-1.658l1.852-7.799c0.132-0.557-0.057-1.142-0.49-1.514l-6.063-5.216c-1.027-0.884-0.481-2.574 0.868-2.682l7.958-0.641c0.568-0.046 1.063-0.407 1.282-0.936l3.066-7.403z"></path>
<path fill="#ffe550" style="fill: var(--color1, #ffe550)" d="M125.707 2.191c0.519-1.254 2.289-1.254 2.808 0l3.066 7.403c0.219 0.529 0.714 0.89 1.283 0.936l7.958 0.641c1.348 0.109 1.895 1.798 0.868 2.682l-6.063 5.216c-0.433 0.373-0.622 0.957-0.49 1.514l1.852 7.799c0.314 1.321-1.117 2.366-2.272 1.658l-6.813-4.179c-0.487-0.299-1.099-0.299-1.585 0l-6.813 4.179c-1.154 0.708-2.586-0.336-2.272-1.658l1.852-7.799c0.132-0.557-0.057-1.142-0.49-1.514l-6.063-5.216c-1.027-0.884-0.481-2.574 0.868-2.682l7.958-0.641c0.568-0.046 1.063-0.407 1.282-0.936l3.066-7.403z"></path>
<path fill="#ffe550" style="fill: var(--color1, #ffe550)" d="M163.041 2.191c0.519-1.254 2.289-1.254 2.808 0l3.066 7.403c0.219 0.529 0.714 0.89 1.283 0.936l7.958 0.641c1.348 0.109 1.895 1.798 0.868 2.682l-6.063 5.216c-0.433 0.373-0.622 0.957-0.49 1.514l1.852 7.799c0.314 1.321-1.117 2.366-2.272 1.658l-6.813-4.179c-0.487-0.299-1.099-0.299-1.585 0l-6.813 4.179c-1.154 0.708-2.586-0.336-2.272-1.658l1.852-7.799c0.132-0.557-0.057-1.142-0.49-1.514l-6.063-5.216c-1.027-0.884-0.481-2.574 0.868-2.682l7.958-0.641c0.568-0.046 1.063-0.407 1.282-0.936l3.066-7.403z"></path>
</symbol>

<symbol id="icon-yellow-circle" viewBox="0 0 32 32">
<path fill="#fefefe" style="fill: var(--color4, #fefefe); stroke: var(--color1, #ffe550)" stroke="#ffe550" stroke-linejoin="miter" stroke-linecap="butt" stroke-miterlimit="4" stroke-width="1.2897" d="M16 0.645c8.436 0 15.275 6.839 15.275 15.275v0.161c0 8.436-6.839 15.275-15.275 15.275s-15.275-6.839-15.275-15.275v-0.161c0-8.436 6.839-15.275 15.275-15.275z"></path>
</symbol>
<symbol id="icon-Vector-logo" viewBox="0 0 32 32">
<path fill="#ffe550" style="fill: var(--color1, #ffe550)" d="M11.126 8.504c0.799-1.567 3.044-1.567 3.844 0l0.995 1.951c0.313 0.613 0.901 1.040 1.582 1.149l2.174 0.346c1.736 0.276 2.428 2.397 1.188 3.64l-1.565 1.568c-0.485 0.486-0.708 1.173-0.602 1.85l0.344 2.182c0.273 1.735-1.542 3.047-3.11 2.249l-1.947-0.992c-0.616-0.314-1.345-0.314-1.961 0l-1.947 0.992c-1.569 0.799-3.384-0.514-3.11-2.249l0.344-2.182c0.107-0.677-0.117-1.364-0.602-1.85l-1.565-1.568c-1.24-1.243-0.548-3.363 1.188-3.64l2.174-0.346c0.681-0.108 1.269-0.535 1.582-1.149l0.995-1.951z"></path>
<path fill="#2c2c2c" style="fill: var(--color2, #2c2c2c)" d="M0.881 19.432l-0.017 0.004c0.002 0.058-0.001 0.295-0.009 0.709-0.003 0.413-0.004 0.684-0.003 0.814-0 0.124-0.003 0.225-0.008 0.302 0 0.076 0.001 0.165 0.001 0.265-0.001 0.095-0.006 0.172-0.016 0.233-0.005 0.054-0.010 0.108-0.015 0.163-0.011 0.103-0.033 0.158-0.067 0.166-0.073 0.017-0.186-0.038-0.341-0.167-0.156-0.134-0.245-0.251-0.269-0.352s-0.029-0.836-0.017-2.206c0.018-1.371-0.018-2.273-0.108-2.706-0.020-0.084-0.016-0.155 0.011-0.215 0.028-0.13 0.173-0.253 0.436-0.368 0.268-0.116 0.667-0.238 1.199-0.363 0.537-0.127 0.963-0.198 1.278-0.214 0.321-0.017 0.493 0.025 0.517 0.125 0.016 0.067-0.021 0.126-0.109 0.176s-0.167 0.093-0.236 0.127c-0.070 0.028-0.162 0.065-0.275 0.109-0.115 0.039-0.221 0.076-0.319 0.111-0.099 0.029-0.228 0.072-0.386 0.127-0.153 0.054-0.294 0.105-0.424 0.153-0.132 0.043-0.309 0.105-0.532 0.188s-0.367 0.134-0.433 0.155c0.010 0.015 0.018 0.040 0.026 0.073 0.062 0.262 0.095 0.891 0.1 1.886 0.351-0.065 0.721-0.162 1.11-0.289 0.395-0.129 0.637-0.204 0.727-0.225 0.213-0.050 0.329-0.031 0.35 0.058 0.041 0.173-0.168 0.376-0.627 0.608-0.453 0.231-0.968 0.415-1.544 0.551z"></path>
<path fill="#2c2c2c" style="fill: var(--color2, #2c2c2c)" d="M6.359 17.888c-0.045-0.19-0.118-0.361-0.219-0.514-0.102-0.158-0.222-0.263-0.358-0.313-0.361 0.197-0.623 0.575-0.787 1.132-0.159 0.55-0.188 1.040-0.087 1.47s0.271 0.672 0.509 0.728c0.384-0.173 0.661-0.528 0.83-1.063 0.173-0.542 0.21-1.022 0.111-1.441zM4.17 18.486c0.093-0.482 0.263-0.899 0.51-1.252 0.252-0.36 0.542-0.579 0.872-0.657 0.336-0.079 0.649-0.003 0.94 0.228 0.29 0.226 0.483 0.543 0.579 0.95 0.095 0.402 0.095 0.838-0.001 1.308-0.097 0.465-0.286 0.878-0.567 1.239-0.277 0.354-0.608 0.577-0.994 0.668-0.285 0.068-0.554-0.007-0.806-0.225s-0.426-0.527-0.521-0.929c-0.096-0.407-0.101-0.851-0.014-1.331z"></path>
<path fill="#2c2c2c" style="fill: var(--color2, #2c2c2c)" d="M10.161 16.988c-0.045-0.19-0.118-0.361-0.219-0.514-0.102-0.158-0.222-0.263-0.358-0.313-0.361 0.197-0.623 0.575-0.787 1.132-0.159 0.55-0.188 1.040-0.087 1.47s0.271 0.672 0.509 0.728c0.384-0.173 0.661-0.528 0.83-1.063 0.173-0.542 0.21-1.022 0.111-1.441zM7.972 17.586c0.093-0.482 0.263-0.899 0.51-1.252 0.252-0.36 0.542-0.579 0.872-0.657 0.336-0.079 0.649-0.003 0.94 0.228 0.29 0.226 0.483 0.543 0.579 0.95 0.095 0.402 0.095 0.838-0.001 1.308-0.097 0.465-0.286 0.878-0.566 1.239-0.277 0.354-0.608 0.577-0.994 0.668-0.285 0.068-0.554-0.007-0.806-0.225s-0.426-0.527-0.521-0.929c-0.096-0.407-0.101-0.851-0.014-1.331z"></path>
<path fill="#2c2c2c" style="fill: var(--color2, #2c2c2c)" d="M14.129 12.072c0.089-0.021 0.218 0.037 0.387 0.174 0.172 0.13 0.276 0.268 0.31 0.413s0.062 0.575 0.083 1.289c0.020 0.708 0.023 1.447 0.010 2.216-0.018 1.725-0.091 2.602-0.219 2.633-0.078 0.019-0.176-0.008-0.294-0.081-0.113-0.079-0.178-0.155-0.196-0.228s-0.032-0.222-0.044-0.449c-0.416 0.688-0.829 1.080-1.237 1.177-0.246 0.058-0.496-0-0.75-0.176-0.249-0.177-0.401-0.385-0.458-0.625-0.082-0.346-0.086-0.778-0.014-1.296 0.077-0.525 0.245-1.024 0.505-1.498s0.589-0.758 0.986-0.852c0.397-0.094 0.73 0.078 0.999 0.515 0.006-1.251-0.059-2.222-0.193-2.915-0.040-0.167 0.002-0.266 0.125-0.295zM14.178 16.4c-0.071-0.301-0.184-0.543-0.339-0.724-0.15-0.183-0.297-0.257-0.442-0.222-0.241 0.057-0.452 0.263-0.633 0.618s-0.303 0.743-0.363 1.164c-0.056 0.414-0.051 0.76 0.015 1.039 0.024 0.1 0.079 0.173 0.166 0.217s0.181 0.054 0.282 0.031c0.218-0.052 0.475-0.277 0.77-0.677 0.301-0.401 0.485-0.834 0.553-1.297l0.001-0.106-0.010-0.042z"></path>
<path fill="#2c2c2c" style="fill: var(--color2, #2c2c2c)" d="M19.534 15.893c0.108 0.458-0.008 0.892-0.348 1.302-0.341 0.405-0.781 0.671-1.318 0.798-0.531 0.126-1.003 0.093-1.414-0.098-0.413-0.197-0.648-0.418-0.706-0.664-0.040-0.167-0.009-0.263 0.092-0.287 0.089-0.021 0.297 0.071 0.624 0.277 0.123 0.071 0.278 0.129 0.466 0.173 0.193 0.043 0.385 0.041 0.575-0.003 0.392-0.093 0.715-0.275 0.969-0.548 0.26-0.274 0.363-0.528 0.307-0.762-0.036-0.151-0.182-0.319-0.439-0.506s-0.533-0.354-0.828-0.502c-0.291-0.155-0.565-0.329-0.823-0.521s-0.404-0.358-0.437-0.498c-0.033-0.14-0.040-0.294-0.021-0.463s0.053-0.298 0.103-0.387c0.161-0.292 0.448-0.592 0.859-0.902 0.417-0.311 0.782-0.503 1.095-0.577 0.162-0.038 0.312-0.018 0.449 0.062s0.219 0.178 0.247 0.295c0.013 0.056-0.035 0.114-0.145 0.176s-0.278 0.148-0.505 0.261c-0.223 0.106-0.418 0.217-0.586 0.333-0.585 0.398-0.851 0.711-0.797 0.94 0.029 0.123 0.437 0.389 1.225 0.797 0.303 0.158 0.59 0.358 0.86 0.601 0.274 0.236 0.439 0.471 0.495 0.705z"></path>
<path fill="#2c2c2c" style="fill: var(--color2, #2c2c2c)" d="M21.461 16.312c0.025 0.106 0.099 0.145 0.222 0.115 0.213-0.050 0.456-0.17 0.73-0.358 0.279-0.196 0.435-0.297 0.468-0.305 0.101-0.024 0.164 0.017 0.189 0.123 0.038 0.162-0.085 0.389-0.371 0.68-0.28 0.29-0.557 0.468-0.831 0.533-0.268 0.064-0.509 0.044-0.723-0.059-0.215-0.108-0.34-0.241-0.377-0.397s-0.050-0.362-0.040-0.618c0.009-0.261 0.028-0.605 0.058-1.030 0.034-0.432 0.056-0.788 0.067-1.068-0.248 0.124-0.417 0.196-0.507 0.217s-0.19-0.002-0.3-0.070c-0.106-0.075-0.169-0.154-0.189-0.238-0.032-0.134 0.302-0.348 1-0.643-0.009-0.487-0.055-0.909-0.14-1.266-0.040-0.167-0.003-0.264 0.108-0.291 0.095-0.023 0.227 0.011 0.396 0.101 0.168 0.084 0.269 0.201 0.305 0.352s0.051 0.427 0.045 0.829c0.312-0.103 0.564-0.178 0.754-0.223 0.336-0.079 0.521-0.047 0.555 0.098 0.020 0.084-0.056 0.175-0.227 0.275-0.166 0.098-0.526 0.275-1.080 0.53-0.013 0.469-0.042 1.009-0.086 1.62-0.046 0.606-0.054 0.97-0.025 1.093z"></path>
<path fill="#2c2c2c" style="fill: var(--color2, #2c2c2c)" d="M25.214 11.923c0.252-0.060 0.514 0.014 0.787 0.22 0.272 0.201 0.432 0.404 0.481 0.611 0.047 0.201 0.026 0.424-0.063 0.669 0.087 0.068 0.138 0.132 0.152 0.194 0.037 0.156 0.064 0.433 0.081 0.829 0.023 0.395 0.039 0.654 0.050 0.775 0.017 0.12 0.028 0.217 0.034 0.293 0.005 0.070 0.006 0.14 0.006 0.211 0.011 0.145-0.023 0.226-0.102 0.245-0.101 0.024-0.205-0.043-0.313-0.2-0.104-0.164-0.194-0.384-0.271-0.661-0.349 0.748-0.736 1.173-1.161 1.274-0.257 0.061-0.538 0.012-0.841-0.146-0.299-0.165-0.476-0.365-0.531-0.599-0.079-0.335-0.054-0.777 0.076-1.326 0.129-0.555 0.343-1.071 0.644-1.549s0.624-0.758 0.971-0.84zM25.948 13.305c-0.123-0.519-0.288-0.754-0.495-0.705-0.218 0.052-0.436 0.268-0.653 0.649-0.218 0.376-0.382 0.783-0.491 1.221s-0.137 0.772-0.082 1.001c0.022 0.095 0.080 0.164 0.173 0.207 0.092 0.037 0.19 0.043 0.297 0.018 0.263-0.062 0.518-0.308 0.765-0.738 0.246-0.435 0.373-0.922 0.381-1.46-0.003-0.088 0.033-0.149 0.107-0.184l-0.002-0.008z"></path>
<path fill="#bbf330" style="fill: var(--color3, #bbf330)" d="M24.228 19.132c-0.24 0.059-0.429 0.241-0.508 0.475-1.502 4.453-5.71 7.656-10.659 7.656-3.002 0-5.731-1.178-7.749-3.099-0.179-0.17-0.432-0.244-0.672-0.184-0.505 0.125-0.696 0.734-0.322 1.095 2.265 2.187 5.347 3.532 8.743 3.532 5.578 0 10.308-3.628 11.965-8.655 0.163-0.493-0.293-0.944-0.798-0.819z"></path>
<path fill="#bbf330" style="fill: var(--color3, #bbf330)" d="M1.469 14.541c0.273-0.068 0.476-0.295 0.526-0.571 0.955-5.254 5.55-9.232 11.066-9.232 3.587 0 6.785 1.682 8.845 4.304 0.174 0.221 0.459 0.328 0.733 0.26 0.461-0.114 0.67-0.648 0.379-1.023-2.304-2.972-5.907-4.885-9.957-4.885-6.211 0-11.372 4.499-12.406 10.419-0.082 0.467 0.353 0.843 0.815 0.729z"></path>
<path fill="#bbf330" style="fill: var(--color3, #bbf330)" d="M32 7.595c-2.977 5.705-4.283 1.942-8.474 4.153 0.419-6.623 4.857-2.593 8.474-4.153z"></path>
</symbol>

<symbol id="icon-White-fon-icon" viewBox="0 0 32 32">
<path fill="#fefefe" style="fill: var(--color4, #fefefe)" d="M32 16c0 8.837-7.163 16-16 16s-16-7.163-16-16c0-8.837 7.163-16 16-16s16 7.163 16 16z"></path>
</symbol>

<symbol id="icon-white-circule-green-apple" viewBox="0 0 32 32">
<path fill="#fefefe" style="fill: var(--color4, #fefefe)" d="M32 16c0 8.837-7.163 16-16 16s-16-7.163-16-16c0-8.837 7.163-16 16-16s16 7.163 16 16z"></path>
</symbol>

<symbol id="icon-yellov-circle-hero" viewBox="0 0 32 32">
<path fill="#fefefe" style="fill: var(--color1, #fefefe); stroke: var(--color2, #ffe550)" stroke="#ffe550" stroke-linejoin="miter" stroke-linecap="butt" stroke-miterlimit="4" stroke-width="1.4345" d="M31.283 16c0 8.44-6.842 15.283-15.283 15.283s-15.283-6.842-15.283-15.283c0-8.44 6.842-15.283 15.283-15.283s15.283 6.842 15.283 15.283z"></path>
</symbol>
</defs>
</svg>
